# xmcd CD database file
#
# Track frame offsets:
#	150
#	14843
#	26890
#	42550
#	58242
#	72946
#	90713
#	104190
#	124089
#	141185
#	156888
#	173842
#	189118
#	207211
#	222435
#	239253
#
# Disc length: 4057 seconds
#
# Revision: 0
# Processed by: cddbd v1.5.1PL0 Copyright (c) Steve Scherf et al.
# Submitted via: CDex 1.51
#
DISCID=f60fd710
DTITLE=Henry Eye - Good old Times
DYEAR=2004
DGENRE=Country
TTITLE0=Good old Times
TTITLE1=Seven Days
TTITLE2=Bee in her bonnet
TTITLE3=I want to rock, I want to roll
TTITLE4=Seventh Heaven
TTITLE5=One night Stand
TTITLE6=No Way
TTITLE7=A walk in the rain
TTITLE8=King of all the Highways
TTITLE9=Waitin' for the Weekend
TTITLE10=Good old trains
TTITLE11=A heart full of fire
TTITLE12=It's five o'clock somewhere (Duet with Bob Style)
TTITLE13=Beer for my horses (Duet with Bob Style)
TTITLE14=The girl that waits for me
TTITLE15=Dang me, oh dang me
EXTD=YEAR: 2004
EXTT0=
EXTT1=
EXTT2=
EXTT3=
EXTT4=
EXTT5=
EXTT6=
EXTT7=
EXTT8=
EXTT9=
EXTT10=
EXTT11=
EXTT12=
EXTT13=
EXTT14=
EXTT15=
PLAYORDER=
